<svg xmlns="http://www.w3.org/2000/svg" viewBox="0 0 681 280"><defs><style>.cls-1,.cls-2{fill:#fff;}.cls-2{fill-rule:evenodd;}</style></defs><g id="Capa_1" data-name="Capa 1"><path class="cls-1" d="M305.33,224c0,6.1-4.05,10.54-11.13,10.54h-9.09v-21.2h9.09C301.08,213.36,305.33,217.89,305.33,224Zm-17.58-8.22v16.32h6.45c5.47,0,8.42-3.38,8.42-8.14s-3.15-8.18-8.42-8.18Z"/><path class="cls-1" d="M314.38,227.09c0,4.4,1.26,5.54,6.1,5.54s6.09-1.14,6.09-5.54V213.36h2.64v14.43c0,5.2-2.48,7.32-8.73,7.32s-8.74-2.12-8.74-7.32V213.36h2.64Z"/><path class="cls-1" d="M337.39,213.36h12.55c4.25,0,6.33,1.85,6.33,5.27a4.43,4.43,0,0,1-1.93,3.89,6.23,6.23,0,0,1,3.42,5.67c0,3.85-2.67,6.37-7.15,6.37H337.39Zm12.78,8.38c2.25,0,3.43-1.06,3.43-3s-1.14-3-3.43-3H340v5.94Zm.95,10.38a4,4,0,0,0,0-7.94H340v7.94Z"/><path class="cls-1" d="M372.6,213.36h2.2l10.5,21.2h-2.87l-2.87-5.7H367.84l-2.79,5.7h-2.84Zm5.78,13L373.7,217l-4.64,9.4Z"/><path class="cls-1" d="M390.89,213.24h2.68v21.4h-2.68Z"/><path class="cls-2" d="M326.48,164.08a40.53,40.53,0,0,1-2.25-4.91c-1.51-4.47-.08-10-1-14.7-1.85-9.67-1.62-18.27-1-28.1.55-8.12,3-18,3.37-26.72.51-11.08,5.8-31.81,2.41-36.69-1.49-2.34-7.22-4.67-10-2.76-2.51,1.73-4.47.85-6.27,4.09-2.9,5.24-5.63,9.9-7.77,15.48-2.93,7.64-13.91,14.07-18.85,20.46-.71.92-1.43,1.85-2.19,2.73-4.2,4.89-10.7,11.16-17.48,11.72-7.51.62-10.49-6.11-12.61-12.1-3.05-8.57-5.78-17.06-6.08-26.24-.22-6.73.47-13-2.74-19.33a9.34,9.34,0,0,1-1.06-2.12c-10.2.21-23.15,8.28-25.06,18-.7,3.76,1.15,7.85,1.24,11.63.3,13.19.84,26.16,1.52,39.33.37,7.24-.16,14.48-.05,21.72.14,8.37-.25,18.18,3.4,26,5.66,12.06,26.09-2.35,20.43-10.52-1.06-2.77-4.25-2.13-5.73-4.25-7.72-10.09-1.61-23.51-2.85-34.72-.16-1.51-.46-3.79.73-5,.2-.21.2-.42.42-.63,1.49,2.75,4.46,7.43,7.43,8.49,6.16,4,15.08-1.91,19.11-3.61,4.89-2.13,9.34-2.13,13.38-4.88,10.19-6.8,26.85-15.5,33-25.91h1.69A225.11,225.11,0,0,1,308,118.05a94.54,94.54,0,0,0,1.47,40.79,18.34,18.34,0,0,0,4.61,8.29,29.41,29.41,0,0,0,3.65,3.13c.95.72,1.91,1.41,2.86,2.13,2,1.52,3.68,3.51,6.45,3s3.16-1.49,2.45-4A42.78,42.78,0,0,0,326.48,164.08Z"/><path class="cls-2" d="M463.12,143.6a386.94,386.94,0,0,0-40,5.09q-5.07.92-10.12,2c-8.94,1.86-24.46,4.25-33.52,5.48-.44.06-.82-10-.84-11-.06-3.29-.73-6.83-.2-10.28a21.37,21.37,0,0,1,3.46-2.76c1.18-.67,2.34-1.37,3.5-2.08,2.38-1.45,4.75-2.93,7.21-4.24,4.93-2.62,10.58-5.33,15.37-8.24,7.17-4.35,14.49-10.28,15.31-21.19a6.07,6.07,0,0,0-.09-2A10.66,10.66,0,0,0,421.88,92c-1.89-2.94-5.77-3.81-9.26-4a49.32,49.32,0,0,0-29.35,7.4c-1.28.81-3.16,1.61-4.12.43a3,3,0,0,1-.44-2Q379,82,379.78,70.24a5.06,5.06,0,0,1,.72-2.74,5.14,5.14,0,0,1,1.6-1.24A51,51,0,0,1,424.29,63c-.31,2.3.17,5.59,2.5,5.57a3.88,3.88,0,0,0,2.46-1.33c3-2.83,5.48-6.87,4.42-10.82a9.28,9.28,0,0,0-5.47-5.79,21.66,21.66,0,0,0-8.07-1.38A69.19,69.19,0,0,0,381.62,60c0-3.55.37-7.47-.11-11-.27-2-.92-1.57-2.8-1.14a17,17,0,0,0-4,1.49,18.37,18.37,0,0,0-7.86,7.89A19,19,0,0,0,365,62.68c-.35,2.08-1.05,4.12-1.29,6.22s-6.27,2.28-5.95,4.23a5.08,5.08,0,0,0,5.38,2.78q-.08,9.45-.86,18.86a4.31,4.31,0,0,1-.5,2,4.8,4.8,0,0,1-2.29,1.52,25,25,0,0,0-6.87,4.37c-1.86,1.66-4.44,4.09-5.14,6.56-1.74,6.15,11.77,3.81,14.71,3.39-.31,9.55,0,16.65.44,24.14-.73.56-1.4,1-1.66,1.25-4.79,3.92-10.8,5.62-13.21,11.69s-.8,11.24,3.54,13.06c5.31,2.23,9,6.37,15,7a29.74,29.74,0,0,0,6.37-.43q1.29-.09,2.58-.27c24.52-3.19,57.14-15,82.81-20.92C460.52,147.51,463.58,146.05,463.12,143.6Zm-84.86-28.32c.12-3.64.14-7.59,2.62-10.54,2.88-3.43,7.6-4.57,12-5.41,3.14-.6,6.38-1.15,9.51-.48s6.14,2.82,6.87,5.93c.07.31.12.63.16,1,.8,5.73-3.72,9.87-8.16,12.6a140.41,140.41,0,0,1-14.16,7.06c-1.37.64-2.68,1.4-4,2.07s-2.71,1.18-4,1.94l-.23.14a3.59,3.59,0,0,0-.6.42C378.29,129.33,378.12,119.33,378.26,115.28Zm-18.83,39.6a7.53,7.53,0,0,1,.56-5.47c.84-1.59,1.42-3.22,3-4.63.14,3.16.24,6.51.29,10.26,0,.65-.06,1.54-.1,2.55C363.21,157.59,360.18,158.87,359.43,154.88Z"/></g></svg>