<?xml version="1.0" encoding="UTF-8"?>
<svg version="1.1" xmlns="http://www.w3.org/2000/svg" width="253" height="47">
<path d="M0 0 C0.99 0 1.98 0 3 0 C3.33 4.95 3.66 9.9 4 15 C6.31 13.02 8.62 11.04 11 9 C11.66 9.33 12.32 9.66 13 10 C13 10.66 13 11.32 13 12 C14.32 12.33 15.64 12.66 17 13 C18.125 17.75 18.125 17.75 17 20 C19.64 20.33 22.28 20.66 25 21 C25 21.99 25 22.98 25 24 C23.86111328 24.09087891 23.86111328 24.09087891 22.69921875 24.18359375 C21.70535156 24.26738281 20.71148437 24.35117187 19.6875 24.4375 C18.70136719 24.51871094 17.71523438 24.59992187 16.69921875 24.68359375 C13.90624401 24.91812559 13.90624401 24.91812559 11 26 C11 26.66 11 27.32 11 28 C11.66 28 12.32 28 13 28 C13 28.66 13 29.32 13 30 C13.66 30 14.32 30 15 30 C15 31.32 15 32.64 15 34 C14.01 34 13.02 34 12 34 C11.67 35.65 11.34 37.3 11 39 C8.625 39.125 8.625 39.125 6 39 C5.34 38.34 4.68 37.68 4 37 C4 39.97 4 42.94 4 46 C2.515 46.495 2.515 46.495 1 47 C0.34 42.05 -0.32 37.1 -1 32 C-1.66 32 -2.32 32 -3 32 C-3 32.66 -3 33.32 -3 34 C-3.66 34 -4.32 34 -5 34 C-5 34.66 -5 35.32 -5 36 C-6.98 36.495 -6.98 36.495 -9 37 C-9 36.01 -9 35.02 -9 34 C-10.65 33.67 -12.3 33.34 -14 33 C-14.625 31.1875 -14.625 31.1875 -15 29 C-14.34 28.01 -13.68 27.02 -13 26 C-15.97 25.67 -18.94 25.34 -22 25 C-22 24.01 -22 23.02 -22 22 C-16.72 21.67 -11.44 21.34 -6 21 C-6.99 20.071875 -7.98 19.14375 -9 18.1875 C-10.6875 16.60546875 -10.6875 16.60546875 -12 15 C-12 14.01 -12 13.02 -12 12 C-11.01 12 -10.02 12 -9 12 C-9 10.68 -9 9.36 -9 8 C-6.125 7.375 -6.125 7.375 -3 7 C-2.34 7.66 -1.68 8.32 -1 9 C-0.67 6.03 -0.34 3.06 0 0 Z M1 16 C1.33 16.66 1.66 17.32 2 18 C2.33 17.34 2.66 16.68 3 16 C2.34 16 1.68 16 1 16 Z M-5 22 C-4 24 -4 24 -4 24 Z M1 22 C1 22.66 1 23.32 1 24 C1.66 24 2.32 24 3 24 C3 23.34 3 22.68 3 22 C2.34 22 1.68 22 1 22 Z M7 22 C7 22.66 7 23.32 7 24 C7.66 24 8.32 24 9 24 C9 23.34 9 22.68 9 22 C8.34 22 7.68 22 7 22 Z M1 28 C1 28.66 1 29.32 1 30 C1.66 29.67 2.32 29.34 3 29 C2.34 28.67 1.68 28.34 1 28 Z " fill="#C29E49" transform="translate(22,0)"/>
<path d="M0 0 C0.99 0 1.98 0 3 0 C3.33 4.95 3.66 9.9 4 15 C6.31 13.02 8.62 11.04 11 9 C11.66 9.33 12.32 9.66 13 10 C13 10.66 13 11.32 13 12 C14.32 12.33 15.64 12.66 17 13 C18.125 17.75 18.125 17.75 17 20 C19.64 20.33 22.28 20.66 25 21 C25 21.99 25 22.98 25 24 C19.72 24 14.44 24 9 24 C9 23.34 9 22.68 9 22 C8.34 22 7.68 22 7 22 C7 23.65 7 25.3 7 27 C5 25.625 5 25.625 3 24 C3 23.34 3 22.68 3 22 C2.42765625 21.74992187 1.8553125 21.49984375 1.265625 21.2421875 C-1.31989684 19.82460828 -3.14728082 18.18877994 -5.25 16.125 C-5.95640625 15.44695313 -6.6628125 14.76890625 -7.390625 14.0703125 C-9 12 -9 12 -9 8 C-6.125 7.375 -6.125 7.375 -3 7 C-2.34 7.66 -1.68 8.32 -1 9 C-0.67 6.03 -0.34 3.06 0 0 Z M1 16 C1.33 16.66 1.66 17.32 2 18 C2.33 17.34 2.66 16.68 3 16 C2.34 16 1.68 16 1 16 Z " fill="#C09A42" transform="translate(22,0)"/>
<path d="M0 0 C1.9375 0.8125 1.9375 0.8125 4 2 C4.33 2.99 4.66 3.98 5 5 C5.66 5 6.32 5 7 5 C8.8588679 7.20810975 10.37694278 9.6081262 12 12 C12.33 8.37 12.66 4.74 13 1 C14.32 1 15.64 1 17 1 C17 7.6 17 14.2 17 21 C11.6011977 19.92023954 11.22473526 19.65936435 8.25 15.5 C7.65703125 14.6853125 7.0640625 13.870625 6.453125 13.03125 C5.97359375 12.3609375 5.4940625 11.690625 5 11 C4.67 10.67 4.34 10.34 4 10 C3.67 13.63 3.34 17.26 3 21 C1.68 21 0.36 21 -1 21 C-1.02888146 17.68751813 -1.04675799 14.37506833 -1.0625 11.0625 C-1.07087891 10.11697266 -1.07925781 9.17144531 -1.08789062 8.19726562 C-1.09111328 7.29814453 -1.09433594 6.39902344 -1.09765625 5.47265625 C-1.10289307 4.64000244 -1.10812988 3.80734863 -1.11352539 2.94946289 C-1 1 -1 1 0 0 Z " fill="#CFB36C" transform="translate(143,12)"/>
<path d="M0 0 C4.59291877 -0.36022892 7.94978453 -0.57869016 12.0625 1.6875 C14 4 14 4 14.5 6.5625 C14 9 14 9 12.41796875 10.359375 C10.72995868 11.9251 10.72995868 11.9251 11.14453125 14.26171875 C11.36496094 15.06222656 11.58539063 15.86273438 11.8125 16.6875 C12.02519531 17.49574219 12.23789063 18.30398437 12.45703125 19.13671875 C12.72580078 20.05904297 12.72580078 20.05904297 13 21 C9.21875 20.3046875 9.21875 20.3046875 7.25 17.5625 C6 15 6 15 6 13 C5.01 13 4.02 13 3 13 C3 15.64 3 18.28 3 21 C1.68 21 0.36 21 -1 21 C-1 17.04 -1 13.08 -1 9 C2.3 8.67 5.6 8.34 9 8 C9 7.01 9 6.02 9 5 C5.7 4.67 2.4 4.34 -1 4 C-0.67 2.68 -0.34 1.36 0 0 Z " fill="#CAAB66" transform="translate(193,12)"/>
<path d="M0 0 C1.79244141 0.01740234 1.79244141 0.01740234 3.62109375 0.03515625 C5.41740234 0.04869141 5.41740234 0.04869141 7.25 0.0625 C8.17683594 0.07410156 9.10367188 0.08570313 10.05859375 0.09765625 C10.05859375 1.41765625 10.05859375 2.73765625 10.05859375 4.09765625 C6.75859375 4.09765625 3.45859375 4.09765625 0.05859375 4.09765625 C0.05859375 5.74765625 0.05859375 7.39765625 0.05859375 9.09765625 C2.69859375 9.09765625 5.33859375 9.09765625 8.05859375 9.09765625 C7.72859375 10.41765625 7.39859375 11.73765625 7.05859375 13.09765625 C4.74859375 13.09765625 2.43859375 13.09765625 0.05859375 13.09765625 C0.05859375 14.74765625 0.05859375 16.39765625 0.05859375 18.09765625 C3.35859375 18.09765625 6.65859375 18.09765625 10.05859375 18.09765625 C10.05859375 19.08765625 10.05859375 20.07765625 10.05859375 21.09765625 C5.43859375 21.09765625 0.81859375 21.09765625 -3.94140625 21.09765625 C-3.96824061 17.78510299 -3.98816405 14.47276442 -4.00390625 11.16015625 C-4.01228516 10.21462891 -4.02066406 9.26910156 -4.02929688 8.29492188 C-4.03251953 7.39580078 -4.03574219 6.49667969 -4.0390625 5.5703125 C-4.04429932 4.73765869 -4.04953613 3.90500488 -4.05493164 3.04711914 C-3.86784489 -0.16554252 -3.26672345 0.10845695 0 0 Z " fill="#C3A153" transform="translate(122.94140625,11.90234375)"/>
<path d="M0 0 C1.41623216 -0.05447047 2.83308191 -0.09300508 4.25 -0.125 C5.03890625 -0.14820313 5.8278125 -0.17140625 6.640625 -0.1953125 C9.28102131 0.02326335 10.81586891 0.50355542 13 2 C13.9375 5.4375 13.9375 5.4375 14 9 C13.48953125 9.47179688 12.9790625 9.94359375 12.453125 10.4296875 C11.97359375 10.94789062 11.4940625 11.46609375 11 12 C11.0709961 14.31604192 11.0709961 14.31604192 11.8125 16.6875 C12.02519531 17.49574219 12.23789063 18.30398437 12.45703125 19.13671875 C12.72580078 20.05904297 12.72580078 20.05904297 13 21 C11.09765625 20.6875 11.09765625 20.6875 9 20 C7.96708324 18.01679982 6.9662501 16.01652194 6 14 C5.01 13.67 4.02 13.34 3 13 C3 15.64 3 18.28 3 21 C1.68 20.67 0.36 20.34 -1 20 C-1 16.37 -1 12.74 -1 9 C2.3 8.67 5.6 8.34 9 8 C9 7.01 9 6.02 9 5 C5.7 4.67 2.4 4.34 -1 4 C-0.67 2.68 -0.34 1.36 0 0 Z " fill="#C6A555" transform="translate(60,12)"/>
<path d="M0 0 C1.5 2.0625 1.5 2.0625 2 4 C-1 5 -1 5 -4.5 4.375 C-7.85178765 3.67867445 -7.85178765 3.67867445 -9.9375 5.0625 C-11.49286352 7.89875113 -11.46333792 9.82282567 -11 13 C-9.42304368 15.0785608 -9.42304368 15.0785608 -7 16 C-4.47608101 15.74524194 -4.47608101 15.74524194 -2 15 C-0.68 15 0.64 15 2 15 C1.625 16.9375 1.625 16.9375 1 19 C-2.45739557 20.72869779 -6.21975568 20.48966895 -10 20 C-12.87029869 18.20606332 -14.49131638 17.01736724 -16 14 C-16.47210258 9.27897422 -16.73364092 6.34044655 -13.6875 2.5625 C-9.42054266 -1.50599421 -5.47267389 -1.58388402 0 0 Z " fill="#C3A04D" transform="translate(244,13)"/>
<path d="M0 0 C1.5 2.0625 1.5 2.0625 2 4 C-1 5 -1 5 -4.5 4.375 C-7.8285931 3.70625167 -7.8285931 3.70625167 -9.9375 4.9375 C-11.64655995 8.25508697 -11.18175023 11.30441203 -11 15 C-6.28400182 15.92470553 -3.32734391 16.22923777 1 14 C1.33 15.32 1.66 16.64 2 18 C-2.01858595 20.6790573 -5.27641721 20.69610694 -10 20 C-12.87029869 18.20606332 -14.49131638 17.01736724 -16 14 C-16.47210258 9.27897422 -16.73364092 6.34044655 -13.6875 2.5625 C-9.42054266 -1.50599421 -5.47267389 -1.58388402 0 0 Z " fill="#C39E49" transform="translate(108,13)"/>
<path d="M0 0 C4.32256898 0.49963144 6.29918078 1.77655876 9.3125 4.875 C10.00988281 5.57367188 10.70726562 6.27234375 11.42578125 6.9921875 C13 9 13 9 13 12 C13.9590625 12.2165625 13.9590625 12.2165625 14.9375 12.4375 C17 13 17 13 18 14 C18.33 13.34 18.66 12.68 19 12 C21.31 12 23.62 12 26 12 C25.01 12.66 24.02 13.32 23 14 C23 14.66 23 15.32 23 16 C23.66 16 24.32 16 25 16 C25 16.66 25 17.32 25 18 C24.34 18 23.68 18 23 18 C23 18.66 23 19.32 23 20 C22.34 20 21.68 20 21 20 C21 19.34 21 18.68 21 18 C20.34 18 19.68 18 19 18 C19 17.34 19 16.68 19 16 C16.42786866 14.38050989 15.32330841 13.95591249 12.25 14.375 C11.5075 14.58125 10.765 14.7875 10 15 C9.67 15.99 9.34 16.98 9 18 C8.34 17.67 7.68 17.34 7 17 C7.33 16.01 7.66 15.02 8 14 C7.34 14 6.68 14 6 14 C6 14.66 6 15.32 6 16 C5.34 16 4.68 16 4 16 C4 16.66 4 17.32 4 18 C3.01 17.67 2.02 17.34 1 17 C1.66 17 2.32 17 3 17 C3 15.02 3 13.04 3 11 C4.65 11.33 6.3 11.66 8 12 C7.50628906 11.46890625 7.01257813 10.9378125 6.50390625 10.390625 C5.86324219 9.68421875 5.22257813 8.9778125 4.5625 8.25 C3.92441406 7.55390625 3.28632813 6.8578125 2.62890625 6.140625 C1.00918675 4.01207275 0.41732744 2.60976595 0 0 Z " fill="#C5A656" transform="translate(10,12)"/>
<path d="M0 0 C4.62 0 9.24 0 14 0 C14 1.32 14 2.64 14 4 C12.35 4 10.7 4 9 4 C9 9.61 9 15.22 9 21 C7.68 21 6.36 21 5 21 C5 15.39 5 9.78 5 4 C3.02 4 1.04 4 -1 4 C-0.67 2.68 -0.34 1.36 0 0 Z " fill="#C09C47" transform="translate(169,12)"/>
<path d="M0 0 C0.99 0.33 1.98 0.66 3 1 C3 7.6 3 14.2 3 21 C-2 20 -2 20 -3.875 18.1875 C-5 16 -5 16 -4.6875 13.75 C-4.460625 13.1725 -4.23375 12.595 -4 12 C-3.01 12.33 -2.02 12.66 -1 13 C-1.01160156 12.14535156 -1.02320313 11.29070313 -1.03515625 10.41015625 C-1.04869141 8.75306641 -1.04869141 8.75306641 -1.0625 7.0625 C-1.07410156 5.96035156 -1.08570313 4.85820312 -1.09765625 3.72265625 C-1 1 -1 1 0 0 Z " fill="#CEAE61" transform="translate(157,12)"/>
<path d="M0 0 C5.61 0 11.22 0 17 0 C16.67 0.66 16.34 1.32 16 2 C15.01 1.67 14.02 1.34 13 1 C13 2.98 13 4.96 13 7 C13.33 6.67 13.66 6.34 14 6 C14.66 6 15.32 6 16 6 C16 5.34 16 4.68 16 4 C16.66 4 17.32 4 18 4 C17.60000283 6.31998359 17.09432121 7.86323424 15.75 9.8125 C14 11 14 11 11.3125 10.6875 C10.549375 10.460625 9.78625 10.23375 9 10 C9 8.02 9 6.04 9 4 C6.03 3.67 3.06 3.34 0 3 C0 2.01 0 1.02 0 0 Z " fill="#C19C42" transform="translate(0,22)"/>
<path d="M0 0 C2.97 0 5.94 0 9 0 C9 1.32 9 2.64 9 4 C9.66 4 10.32 4 11 4 C12.4606285 6.64738916 13 7.89448334 13 11 C11.1875 10.8125 11.1875 10.8125 9 10 C6 5.82142857 6 5.82142857 6 3 C5.01 3 4.02 3 3 3 C3 5.64 3 8.28 3 11 C2.01 11 1.02 11 0 11 C0 7.37 0 3.74 0 0 Z " fill="#C4A251" transform="translate(193,22)"/>
<path d="M0 0 C2.97 0 5.94 0 9 0 C9 1.32 9 2.64 9 4 C9.66 4 10.32 4 11 4 C12.4606285 6.64738916 13 7.89448334 13 11 C11.1875 10.875 11.1875 10.875 9 10 C7.96708324 8.01679982 6.9662501 6.01652194 6 4 C5.01 3.67 4.02 3.34 3 3 C3 5.64 3 8.28 3 11 C2.01 11 1.02 11 0 11 C0 7.37 0 3.74 0 0 Z " fill="#C6A758" transform="translate(60,22)"/>
<path d="M0 0 C1.5 2.0625 1.5 2.0625 2 4 C-1 5 -1 5 -4.5 4.375 C-7.86836096 3.64001449 -7.86836096 3.64001449 -9.8125 5.1875 C-11.04580213 7.06990851 -12.07951712 8.94661511 -13 11 C-13.59732819 8.23735711 -14 5.83967231 -14 3 C-10.23794829 -1.65777831 -5.39868494 -1.56247037 0 0 Z " fill="#CBAD61" transform="translate(108,13)"/>
<path d="M0 0 C1.79244141 0.01740234 1.79244141 0.01740234 3.62109375 0.03515625 C5.41740234 0.04869141 5.41740234 0.04869141 7.25 0.0625 C8.17683594 0.07410156 9.10367188 0.08570313 10.05859375 0.09765625 C10.05859375 1.08765625 10.05859375 2.07765625 10.05859375 3.09765625 C6.42859375 3.42765625 2.79859375 3.75765625 -0.94140625 4.09765625 C-1.86292276 7.7837223 -2.23949604 11.07036755 -2.50390625 14.84765625 C-2.58769531 16.018125 -2.67148438 17.18859375 -2.7578125 18.39453125 C-2.81839844 19.2865625 -2.87898438 20.17859375 -2.94140625 21.09765625 C-3.27140625 21.09765625 -3.60140625 21.09765625 -3.94140625 21.09765625 C-3.97028771 17.78517438 -3.98816424 14.47272458 -4.00390625 11.16015625 C-4.01228516 10.21462891 -4.02066406 9.26910156 -4.02929688 8.29492188 C-4.03251953 7.39580078 -4.03574219 6.49667969 -4.0390625 5.5703125 C-4.04429932 4.73765869 -4.04953613 3.90500488 -4.05493164 3.04711914 C-3.86784489 -0.16554252 -3.26672345 0.10845695 0 0 Z " fill="#CBB069" transform="translate(122.94140625,11.90234375)"/>
<path d="M0 0 C0.99 0.33 1.98 0.66 3 1 C3 7.6 3 14.2 3 21 C2.01 21 1.02 21 0 21 C0 14.07 0 7.14 0 0 Z " fill="#C19E4A" transform="translate(216,12)"/>
<path d="M0 0 C2.0625 0.4375 2.0625 0.4375 4 1 C5.125 5.75 5.125 5.75 4 8 C6.64 8.33 9.28 8.66 12 9 C12 9.33 12 9.66 12 10 C10.06257659 10.02703381 8.12504521 10.04641125 6.1875 10.0625 C5.10855469 10.07410156 4.02960937 10.08570313 2.91796875 10.09765625 C0 10 0 10 -3 9 C-3 8.34 -3 7.68 -3 7 C-2.34 7 -1.68 7 -1 7 C-1 6.34 -1 5.68 -1 5 C-0.34 5 0.32 5 1 5 C1 4.01 1 3.02 1 2 C0.34 1.67 -0.32 1.34 -1 1 C-0.67 0.67 -0.34 0.34 0 0 Z " fill="#CDB172" transform="translate(35,12)"/>
<path d="M0 0 C4.62 0 9.24 0 14 0 C14 1.32 14 2.64 14 4 C12.35 4 10.7 4 9 4 C9 9.61 9 15.22 9 21 C8.67 21 8.34 21 8 21 C8 14.73 8 8.46 8 2 C5.36 1.67 2.72 1.34 0 1 C0 0.67 0 0.34 0 0 Z " fill="#DFCC97" transform="translate(169,12)"/>
<path d="M0 0 C0.99 0.33 1.98 0.66 3 1 C2.67 2.98 2.34 4.96 2 7 C1.01 7.33 0.02 7.66 -1 8 C-1 7.34 -1 6.68 -1 6 C-1.66 6 -2.32 6 -3 6 C-3 5.34 -3 4.68 -3 4 C-4.32 4 -5.64 4 -7 4 C-7 2.68 -7 1.36 -7 0 C-4.30224476 -1.34887762 -2.88231982 -0.70300484 0 0 Z " fill="#C6A85B" transform="translate(20,8)"/>
<path d="M0 0 C0.99 0.495 0.99 0.495 2 1 C2 1.99 2 2.98 2 4 C2.9590625 4.2165625 2.9590625 4.2165625 3.9375 4.4375 C6 5 6 5 7 6 C7.33 5.34 7.66 4.68 8 4 C10.31 4 12.62 4 15 4 C14.01 4.66 13.02 5.32 12 6 C12 6.66 12 7.32 12 8 C12.66 8 13.32 8 14 8 C14 8.66 14 9.32 14 10 C13.34 10 12.68 10 12 10 C12 10.66 12 11.32 12 12 C11.34 12 10.68 12 10 12 C10 11.34 10 10.68 10 10 C9.34 10 8.68 10 8 10 C8 9.34 8 8.68 8 8 C5.66785852 6.79371992 3.50357861 5.8345262 1 5 C0.67 3.35 0.34 1.7 0 0 Z " fill="#D9C187" transform="translate(21,20)"/>
<path d="M0 0 C0.103125 0.639375 0.20625 1.27875 0.3125 1.9375 C0.539375 2.618125 0.76625 3.29875 1 4 C1.99 4.33 2.98 4.66 4 5 C4 8.63 4 12.26 4 16 C3.01 16.33 2.02 16.66 1 17 C0.09586327 13.16275828 -0.10576898 9.62497726 -0.0625 5.6875 C-0.05347656 4.61886719 -0.04445313 3.55023438 -0.03515625 2.44921875 C-0.02355469 1.64097656 -0.01195313 0.83273438 0 0 Z " fill="#D0B36D" transform="translate(22,30)"/>
<path d="M0 0 C0.99 0.33 1.98 0.66 3 1 C2.625 2.9375 2.625 2.9375 2 5 C-0.40545638 6.20272819 -1.94996953 6.10071472 -4.625 6.0625 C-5.85089844 6.04896484 -5.85089844 6.04896484 -7.1015625 6.03515625 C-8.04128906 6.01775391 -8.04128906 6.01775391 -9 6 C-9.33 5.01 -9.66 4.02 -10 3 C-9.04287109 2.80083984 -9.04287109 2.80083984 -8.06640625 2.59765625 C-7.24011719 2.42105469 -6.41382813 2.24445312 -5.5625 2.0625 C-4.73878906 1.88847656 -3.91507813 1.71445312 -3.06640625 1.53515625 C-1.02338796 1.19247006 -1.02338796 1.19247006 0 0 Z " fill="#C7A558" transform="translate(243,27)"/>
<path d="M0 0 C0.66 0.33 1.32 0.66 2 1 C0.46990911 4.44270451 -1.4931222 7.18925822 -4 10 C-4.99 10.33 -5.98 10.66 -7 11 C-7 10.34 -7 9.68 -7 9 C-7.66 8.67 -8.32 8.34 -9 8 C-7.87811441 6.85111717 -6.75238316 5.70598863 -5.625 4.5625 C-4.99851562 3.92441406 -4.37203125 3.28632813 -3.7265625 2.62890625 C-2 1 -2 1 0 0 Z " fill="#C9AA57" transform="translate(33,9)"/>
<path d="M0 0 C0.66 0.33 1.32 0.66 2 1 C2 1.99 2 2.98 2 4 C6.455 3.505 6.455 3.505 11 3 C11 3.99 11 4.98 11 6 C10.34 6 9.68 6 9 6 C9 6.66 9 7.32 9 8 C7.68 8.33 6.36 8.66 5 9 C5 8.01 5 7.02 5 6 C3.35 5.67 1.7 5.34 0 5 C-0.5625 3.0625 -0.5625 3.0625 -1 1 C-0.67 0.67 -0.34 0.34 0 0 Z " fill="#C2A049" transform="translate(8,28)"/>
<path d="M0 0 C0.66 0.66 1.32 1.32 2 2 C1.98252073 4.75589777 1.86136729 7.38786676 1.625 10.125 C1.56828125 10.87910156 1.5115625 11.63320313 1.453125 12.41015625 C1.3115535 14.27418096 1.15700041 16.13721137 1 18 C0.34 18 -0.32 18 -1 18 C-1.02684312 15.18743719 -1.04676188 12.37512759 -1.0625 9.5625 C-1.07087891 8.76005859 -1.07925781 7.95761719 -1.08789062 7.13085938 C-1.0965143 5.08704779 -1.0522815 3.04316098 -1 1 C-0.67 0.67 -0.34 0.34 0 0 Z " fill="#BE9533" transform="translate(144,14)"/>
<path d="M0 0 C-0.375 1.9375 -0.375 1.9375 -1 4 C-3.40545638 5.20272819 -4.94996953 5.10071472 -7.625 5.0625 C-8.85089844 5.04896484 -8.85089844 5.04896484 -10.1015625 5.03515625 C-11.04128906 5.01775391 -11.04128906 5.01775391 -12 5 C-8.57151237 1.36743573 -5.0640084 -1.6880028 0 0 Z " fill="#C6A55D" transform="translate(110,28)"/>
<path d="M0 0 C0.66 0 1.32 0 2 0 C1.95359375 0.60328125 1.9071875 1.2065625 1.859375 1.828125 C1.52189688 7.08413333 1.52189688 7.08413333 4 11.5625 C4.66 12.036875 5.32 12.51125 6 13 C4.35 13.66 2.7 14.32 1 15 C0.34 14.34 -0.32 13.68 -1 13 C-0.9765625 9.9609375 -0.9765625 9.9609375 -0.625 6.375 C-0.51414063 5.18648437 -0.40328125 3.99796875 -0.2890625 2.7734375 C-0.19367188 1.85820312 -0.09828125 0.94296875 0 0 Z " fill="#D1B670" transform="translate(231,17)"/>
<path d="M0 0 C0.66 0 1.32 0 2 0 C3.125 5.625 3.125 5.625 2 9 C1.34 8.67 0.68 8.34 0 8 C0.33 7.01 0.66 6.02 1 5 C0.34 5 -0.32 5 -1 5 C-1 5.66 -1 6.32 -1 7 C-1.66 7 -2.32 7 -3 7 C-3 7.66 -3 8.32 -3 9 C-3.99 8.67 -4.98 8.34 -6 8 C-5.34 8 -4.68 8 -4 8 C-4 6.02 -4 4.04 -4 2 C-2.35 2.33 -0.7 2.66 1 3 C0.67 2.01 0.34 1.02 0 0 Z " fill="#D4BD66" transform="translate(17,21)"/>
<path d="M0 0 C0.75 1.75 0.75 1.75 1 4 C-0.9375 6.25 -0.9375 6.25 -3 8 C-3 6.68 -3 5.36 -3 4 C-5.97 4 -8.94 4 -12 4 C-12 7.3 -12 10.6 -12 14 C-12.33 14 -12.66 14 -13 14 C-13 10.37 -13 6.74 -13 3 C-8.71 3 -4.42 3 0 3 C0 2.01 0 1.02 0 0 Z " fill="#CEB16B" transform="translate(72,18)"/>
<path d="M0 0 C4.95 0.33 9.9 0.66 15 1 C15 1.66 15 2.32 15 3 C10.05 3 5.1 3 0 3 C0 2.01 0 1.02 0 0 Z " fill="#BE9638" transform="translate(32,21)"/>
<path d="M0 0 C2.97 0 5.94 0 9 0 C8.01 0.66 7.02 1.32 6 2 C6.99 2.66 7.98 3.32 9 4 C5.7 4 2.4 4 -1 4 C-0.67 2.68 -0.34 1.36 0 0 Z " fill="#CCB172" transform="translate(60,12)"/>
<path d="M0 0 C0.33 2.64 0.66 5.28 1 8 C0.34 8 -0.32 8 -1 8 C-0.67 9.32 -0.34 10.64 0 12 C-1.5 11 -1.5 11 -3 9 C-3.27345479 6.28153765 -3.13491285 3.74322801 -3 1 C-1 0 -1 0 0 0 Z " fill="#C7A454" transform="translate(95,18)"/>
<path d="M0 0 C2.31 0 4.62 0 7 0 C6.03320312 0.35191406 6.03320312 0.35191406 5.046875 0.7109375 C2.7922092 1.81161073 2.7922092 1.81161073 2.390625 4.1640625 C2.34421875 4.97617187 2.2978125 5.78828125 2.25 6.625 C2.19328125 7.44226563 2.1365625 8.25953125 2.078125 9.1015625 C2.05234375 9.72804688 2.0265625 10.35453125 2 11 C1.34 11 0.68 11 0 11 C0 7.37 0 3.74 0 0 Z " fill="#BC9537" transform="translate(60,22)"/>
<path d="M0 0 C2.0625 0.4375 2.0625 0.4375 4 1 C4.33 2.65 4.66 4.3 5 6 C3.02 6.33 1.04 6.66 -1 7 C-1 6.34 -1 5.68 -1 5 C-0.34 5 0.32 5 1 5 C1 4.01 1 3.02 1 2 C0.34 1.67 -0.32 1.34 -1 1 C-0.67 0.67 -0.34 0.34 0 0 Z " fill="#C9A260" transform="translate(35,12)"/>
<path d="M0 0 C5.4611399 0.35233161 5.4611399 0.35233161 8 1 C9.5 3.0625 9.5 3.0625 10 5 C9.01 5.33 8.02 5.66 7 6 C6.5875 5.566875 6.175 5.13375 5.75 4.6875 C3.93945495 2.94161728 2.03525768 1.47380729 0 0 Z " fill="#D0B578" transform="translate(236,12)"/>
<path d="M0 0 C0.66 0.33 1.32 0.66 2 1 C0.8905928 4.48670834 -0.26337666 7.77484237 -2 11 C-2.59732819 8.23735711 -3 5.83967231 -3 3 C-1.5 1.3125 -1.5 1.3125 0 0 Z " fill="#CFB36D" transform="translate(97,13)"/>
<path d="M0 0 C1.9375 0.8125 1.9375 0.8125 4 2 C4.33 2.99 4.66 3.98 5 5 C5.66 5 6.32 5 7 5 C7 5.66 7 6.32 7 7 C5.35 6.67 3.7 6.34 2 6 C1.33333333 4 0.66666667 2 0 0 Z " fill="#CBAC63" transform="translate(143,12)"/>
<path d="M0 0 C0.66 0.33 1.32 0.66 2 1 C2 1.99 2 2.98 2 4 C3.65 4 5.3 4 7 4 C7 4.66 7 5.32 7 6 C5.02 6 3.04 6 1 6 C0.34 4.35 -0.32 2.7 -1 1 C-0.67 0.67 -0.34 0.34 0 0 Z " fill="#CDB577" transform="translate(8,28)"/>
</svg>
