<svg width="13" height="14" viewBox="0 0 13 14" fill="none" xmlns="http://www.w3.org/2000/svg">
<path fill-rule="evenodd" clip-rule="evenodd" d="M6.47997 1.37665C8.21017 1.37665 8.41404 1.38217 9.09731 1.41523C9.72822 1.44278 10.0726 1.55023 10.3013 1.63839C10.6043 1.75686 10.8192 1.89737 11.0452 2.12328C11.2711 2.3492 11.4116 2.56685 11.5301 2.86716C11.6182 3.09583 11.7257 3.43746 11.7532 4.07113C11.7835 4.7544 11.7918 4.95827 11.7918 6.68847C11.7918 8.41867 11.7863 8.62254 11.7532 9.30581C11.7257 9.93672 11.6182 10.2811 11.5301 10.5098C11.4116 10.8128 11.2711 11.0277 11.0452 11.2537C10.8192 11.4796 10.6016 11.6201 10.3013 11.7386C10.0726 11.8267 9.73098 11.9342 9.09731 11.9617C8.41404 11.992 8.21017 12.0003 6.47997 12.0003C4.74977 12.0003 4.5459 11.9948 3.86263 11.9617C3.23172 11.9342 2.88733 11.8267 2.65866 11.7386C2.3556 11.6201 2.1407 11.4796 1.91478 11.2537C1.68887 11.0277 1.54836 10.8101 1.42989 10.5098C1.34173 10.2811 1.23428 9.93948 1.20673 9.30581C1.17643 8.62254 1.16816 8.41867 1.16816 6.68847C1.16816 4.95827 1.17367 4.7544 1.20673 4.07113C1.23428 3.44022 1.34173 3.09583 1.42989 2.86716C1.54836 2.5641 1.68887 2.3492 1.91478 2.12328C2.1407 1.89737 2.35836 1.75686 2.65866 1.63839C2.88733 1.55023 3.22896 1.44278 3.86263 1.41523C4.5459 1.38492 4.74977 1.37665 6.47997 1.37665ZM6.47997 0.208496C4.71947 0.208496 4.49907 0.216761 3.80754 0.247067C3.11876 0.277373 2.64764 0.387577 2.23437 0.547372C1.80734 0.712678 1.44642 0.93584 1.08551 1.294C0.72459 1.65492 0.504176 2.01584 0.338871 2.44288C0.179076 2.85614 0.0688729 3.32726 0.0385669 4.01603C0.0082609 4.70756 0 4.92797 0 6.68847C0 8.44897 0.0082609 8.66938 0.0385669 9.36091C0.0688729 10.0497 0.179076 10.5208 0.338871 10.9341C0.504176 11.3611 0.727345 11.722 1.08551 12.0829C1.44367 12.4439 1.80734 12.6643 2.23437 12.8296C2.64764 12.9894 3.11876 13.0996 3.80754 13.1299C4.49907 13.1602 4.71947 13.1684 6.47997 13.1684C8.24047 13.1684 8.46088 13.1602 9.15241 13.1299C9.84118 13.0996 10.3123 12.9894 10.7256 12.8296C11.1526 12.6643 11.5135 12.4411 11.8744 12.0829C12.2354 11.722 12.4558 11.3611 12.6211 10.9341C12.7809 10.5208 12.8911 10.0497 12.9214 9.36091C12.9517 8.66938 12.9599 8.44897 12.9599 6.68847C12.9599 4.92797 12.9517 4.70756 12.9214 4.01603C12.8911 3.32726 12.7809 2.85614 12.6211 2.44288C12.4558 2.01584 12.2326 1.65492 11.8744 1.294C11.5135 0.933085 11.1526 0.712678 10.7256 0.547372C10.3123 0.387577 9.84118 0.277373 9.15241 0.247067C8.46088 0.216761 8.24047 0.208496 6.47997 0.208496ZM10.7205 3.34611C10.7205 3.7759 10.3734 4.12304 9.9436 4.12304C9.51381 4.12304 9.16667 3.7759 9.16667 3.34611C9.16667 2.91631 9.51381 2.56917 9.9436 2.56917C10.3734 2.56917 10.7205 2.91631 10.7205 3.34611ZM3.15625 6.68899C3.15625 4.85134 4.64675 3.36084 6.4844 3.36084C8.32204 3.36084 9.81255 4.85134 9.81255 6.68899C9.81255 8.52664 8.32204 10.0171 6.4844 10.0171C4.64675 10.0171 3.15625 8.52664 3.15625 6.68899ZM4.32441 6.68899C4.32441 7.88194 5.29144 8.84898 6.4844 8.84898C7.67735 8.84898 8.64439 7.88194 8.64439 6.68899C8.64439 5.49604 7.67735 4.529 6.4844 4.529C5.29144 4.529 4.32441 5.49604 4.32441 6.68899Z" fill="white"/>
</svg>
