<svg width="48" height="49" viewBox="0 0 48 49" fill="none" xmlns="http://www.w3.org/2000/svg">
<path d="M47.0799 24.4453C47.0799 37.684 36.6412 48.3906 23.79 48.3906C10.9389 48.3906 0.5 37.684 0.5 24.4453C0.5 11.2067 10.9389 0.5 23.79 0.5C36.6412 0.5 47.0799 11.2066 47.0799 24.4453Z" fill="white" stroke="#65799B"/>
<g clip-path="url(#clip0_1_812)">
<path d="M34.2762 34.4498L26.2345 22.5572L25.3253 21.2122L19.5728 12.705L19.0962 12H12.0276L13.7516 14.5502L21.4002 25.8628L22.3094 27.2064L28.4548 36.2958L28.9316 37.0002H36.0002L34.2762 34.45V34.4498ZM29.7717 35.3724L23.387 25.9295L22.4778 24.5852L15.0691 13.6276H18.2559L24.2475 22.4891L25.1566 23.8333L32.9586 35.3722H29.7717V35.3724Z" fill="#65799B"/>
<path d="M22.4779 24.585L23.387 25.9292L22.3092 27.2061L14.0393 36.9999H12L21.4 25.8625L22.4779 24.585Z" fill="#65799B"/>
<path d="M35.149 12L26.2345 22.5572L25.1566 23.8333L24.2475 22.4891L25.3253 21.2122L31.3639 14.0574L33.1097 12H35.149Z" fill="#65799B"/>
</g>
<defs>
<clipPath id="clip0_1_812">
<rect width="24" height="25" fill="white" transform="translate(12 12)"/>
</clipPath>
</defs>
</svg>
